<svg width="60" height="60" viewBox="0 0 60 60" fill="none" xmlns="http://www.w3.org/2000/svg">
<g filter="url(#filter0_d)">
<path d="M30.9628 7.94624C31.9057 7.98717 32.8324 8.08887 33.741 8.24577L30.8085 15.4828C30.8483 15.5361 30.8888 15.5919 30.9311 15.6508L31.7147 15.724L31.308 16.751L30.5585 16.5352L29.6281 15.6248C29.1535 15.6372 28.6839 15.6725 28.2218 15.7308L29.2182 8.0312C29.1548 7.97291 29.0988 7.93942 29.0515 7.94128L28.248 7.99213L28.4171 6.61108L29.2039 6.64147L30.9908 7.94252C30.9808 7.94252 30.9709 7.94376 30.9628 7.94624ZM36.5771 8.93598C37.4641 9.21628 38.3267 9.5524 39.1595 9.93875L34.4706 16.1438C34.4874 16.2139 34.5048 16.2883 34.5216 16.3671L35.2605 16.6406L34.6006 17.5274L33.9338 17.1261L33.2696 16.0037C32.8156 15.8958 32.3535 15.8096 31.8845 15.7463L34.789 8.70157C34.761 8.61909 34.7343 8.53103 34.7076 8.43615L33.9177 8.27802L34.4414 6.98689L35.1933 7.21944L36.5815 8.93722L36.5771 8.93598ZM41.6983 11.3285C42.4857 11.8295 43.2377 12.3802 43.9504 12.9756L37.8888 17.6979C37.8633 17.7885 37.8366 17.884 37.8061 17.9857L38.4474 18.4396L37.5797 19.1261L37.0393 18.5661L36.6891 17.311C36.2774 17.0883 35.8544 16.8849 35.4197 16.7032L40.1186 10.5651C40.1086 10.464 40.0856 10.3952 40.0433 10.3728L39.3218 10.0163L40.1627 8.90374L40.8282 9.32295L41.7232 11.3403C41.717 11.3353 41.7083 11.331 41.6983 11.3285ZM46.0607 14.9898C46.6826 15.6688 47.2623 16.3876 47.7941 17.1417L40.7983 20.1028L41.4956 20.9977L48.2786 18.1754C48.2991 18.1041 48.3209 18.0316 48.3451 17.9571L47.8992 17.288L49.1841 16.7441L49.5511 17.4387L49.3141 19.6327H49.3129C49.7371 20.4457 50.1096 21.2891 50.4293 22.158L42.7973 23.2277C42.7326 23.2934 42.6636 23.3623 42.5896 23.4342L42.9173 24.148L41.8215 24.3098L41.6343 23.5557L41.9595 22.2944C41.735 21.9285 41.4918 21.5738 41.2343 21.2315L29.383 27.2573L34.5844 29.6108L29.9975 40.1655L30.6437 32.2712L19.6177 39.0214C20.1675 39.6241 20.7696 40.1786 21.4164 40.6784L15.2672 45.4082C15.2796 45.4708 15.292 45.5353 15.3045 45.6023L15.909 46.1325L14.8082 46.9901L14.2733 46.414L13.9325 44.2336L13.9362 44.2281C13.3149 43.5502 12.7364 42.8327 12.2047 42.0793L19.0399 39.1863L18.4827 38.2326L11.7668 41.0263C11.7314 41.1026 11.6947 41.1813 11.6536 41.2644L12.0996 41.9329L10.814 42.4774L10.447 41.7828L10.6834 39.5894L10.6859 39.5882C10.2623 38.7752 9.88852 37.9324 9.56945 37.0636L17.2512 35.987C17.3003 35.9225 17.3532 35.8562 17.4098 35.788L17.0814 35.0742L18.1767 34.9123L18.3639 35.6664L18.038 36.9272C18.2675 37.2992 18.5138 37.6595 18.7756 38.0068L30.5859 32.1254L25.4131 29.6114L29.9994 19.0573L29.3333 27.1643L40.3997 20.2206C39.8443 19.611 39.2372 19.0498 38.5823 18.545L44.6806 13.8549C44.6831 13.7805 44.688 13.703 44.6949 13.6217L44.0897 13.0909L45.1906 12.2333L45.7261 12.81L46.0663 14.9898H46.0607ZM51.2453 24.9566C51.4406 25.8465 51.5805 26.7563 51.662 27.6834L44.1295 26.7612C44.0188 26.804 43.8975 26.8481 43.7638 26.8939L43.8963 27.6685L42.7954 27.542L42.811 26.765L43.4535 25.6295C43.3197 25.178 43.163 24.7365 42.9858 24.3055L50.6439 23.2798C50.6793 23.2159 50.7129 23.152 50.7446 23.0888L50.4884 22.3272L51.871 22.1331L52.0445 22.899L51.2478 24.9566H51.2453ZM51.7261 30.5943C51.6838 31.5264 51.583 32.4429 51.4263 33.3409L44.2471 30.4492C44.1706 30.4783 44.0879 30.5087 44.0008 30.5391L43.9268 31.3217L42.8968 30.9155L43.1133 30.1689L44.0269 29.2406C44.0145 28.7668 43.9796 28.2986 43.9199 27.8384L51.6421 28.8319C51.6701 28.7773 51.7006 28.7221 51.7323 28.6663L51.6813 27.8645L53.0676 28.0338L53.0371 28.8182L51.7323 30.5999L51.7261 30.5943ZM50.7341 36.1737C50.4536 37.0562 50.1171 37.915 49.7296 38.7448L43.5828 34.126C43.4926 34.1272 43.3931 34.126 43.2831 34.1204L43.0088 34.8571L42.1194 34.1992L42.5212 33.5338L43.6475 32.8715C43.7557 32.4194 43.8428 31.958 43.905 31.4904L51.0537 34.4212C51.111 34.3827 51.1713 34.3449 51.2372 34.3058L51.3964 33.5176L52.6913 34.0398L52.4581 34.7895L50.7341 36.1737ZM48.3215 41.2973C47.8221 42.0743 47.2754 42.8166 46.6839 43.5211L41.9365 37.463C41.8501 37.4444 41.7568 37.4214 41.6598 37.3947L41.2032 38.0347L40.516 37.1696L41.077 36.6307L42.3364 36.2816C42.5597 35.8711 42.7631 35.4488 42.9453 35.0153L49.0591 39.6676C49.1331 39.6527 49.2121 39.6384 49.2949 39.6254L49.6519 38.906L50.7683 39.7445L50.3478 40.4086L48.324 41.3004L48.3215 41.2973ZM44.6613 45.6265C43.9809 46.246 43.2607 46.8233 42.505 47.3535L39.445 40.1674C39.3803 40.1593 39.3125 40.1494 39.241 40.1376L38.6346 40.6393L38.1936 39.6254L38.8765 39.2502L40.1801 39.2378C40.5035 38.8967 40.8108 38.5408 41.1 38.1693L45.7852 44.225C45.8654 44.2367 45.9494 44.2491 46.0377 44.264L46.5695 43.6606L47.4296 44.7583L46.8512 45.2916L44.6644 45.6314L44.6613 45.6265ZM40.0066 48.8692C39.1912 49.2915 38.346 49.6636 37.474 49.9817L36.3955 42.3279C36.3321 42.2796 36.2643 42.225 36.194 42.1642L35.4788 42.4917L35.3171 41.399L36.074 41.2123L37.3384 41.5367C37.7396 41.2911 38.1271 41.025 38.4996 40.7416L41.4819 47.8676C41.5497 47.8788 41.6181 47.89 41.6884 47.9024L42.3588 47.4577L42.9043 48.7389L42.2083 49.1054L40.0085 48.8692H40.0066ZM34.6665 50.7947C33.7746 50.9888 32.8616 51.1283 31.9324 51.2102L32.8809 43.5087C32.8311 43.4566 32.7789 43.3989 32.7242 43.3351L31.948 43.4665L32.0742 42.3695L32.8541 42.3844L33.9923 43.0256C34.4457 42.8917 34.8885 42.7354 35.3202 42.5586L36.3464 50.1789C36.4098 50.2161 36.4739 50.2546 36.5411 50.2955L37.3042 50.0387L37.4989 51.4179L36.7314 51.5916L34.6678 50.7959V50.7947H34.6665ZM29.0074 51.2741C28.0744 51.2325 27.1577 51.1314 26.2589 50.9758L29.189 43.745C29.1498 43.6892 29.11 43.6315 29.0696 43.5713L28.2853 43.4981L28.6927 42.4712L29.4409 42.687L30.3725 43.598C30.8477 43.5856 31.3167 43.5502 31.7782 43.4913L30.7849 51.168L30.9479 51.2796L31.752 51.2288L31.5822 52.6111L30.7949 52.5807L29.008 51.2796L29.0074 51.2741ZM23.4179 50.2849C22.5328 50.0046 21.672 49.6691 20.8399 49.2834L25.5387 43.0653C25.5182 42.9996 25.4977 42.9289 25.4771 42.8551L24.7383 42.5822L25.3988 41.6948L26.0661 42.096L26.7304 43.2191C27.1838 43.327 27.6465 43.4132 28.1161 43.4758L25.1942 50.5615C25.2265 50.6328 25.2588 50.7073 25.2924 50.786L26.0823 50.9441L25.5592 52.2359L24.8073 52.0033L23.4179 50.2849ZM18.2787 47.8794C17.5 47.3815 16.7555 46.8357 16.049 46.246L22.1503 41.4932C22.1628 41.4114 22.1764 41.3258 22.1939 41.2365L21.5514 40.7819L22.4196 40.0961L22.9601 40.6561L23.3103 41.9106C23.7214 42.1338 24.1449 42.3372 24.5803 42.5183L19.8957 48.6379C19.9163 48.7042 19.9368 48.7749 19.9567 48.8487L20.6788 49.2053L19.8385 50.3178L19.1724 49.8992L18.2774 47.8813L18.2787 47.8794ZM8.75407 34.2655C8.5594 33.375 8.41884 32.4653 8.33736 31.5382L16.0533 32.4826C16.1093 32.4318 16.1702 32.3803 16.2349 32.3276L16.1031 31.5537L17.2033 31.6796L17.1884 32.4566L16.5453 33.5921C16.6796 34.0435 16.8357 34.4851 17.013 34.9167L9.52654 35.9188C9.44817 35.9908 9.35737 36.0621 9.25412 36.1328L9.51161 36.8943L8.12839 37.0884L7.95424 36.3231L8.7522 34.2655H8.75407ZM8.2733 28.626C8.31497 27.6945 8.41635 26.7786 8.57246 25.8806L15.8083 28.7953L15.9992 28.683L16.0732 27.9011L17.1032 28.3072L16.8867 29.0539L15.9737 29.9816C15.9861 30.456 16.0216 30.9236 16.0801 31.3844L8.52582 30.4132C8.44807 30.4604 8.36224 30.5087 8.2677 30.5571L8.31871 31.3589L6.93237 31.1896L6.96285 30.4046L8.2677 28.6229L8.2733 28.626ZM9.26532 23.0478C9.54644 22.1654 9.8823 21.3071 10.2698 20.4774L16.4999 25.1582C16.5689 25.139 16.6417 25.1197 16.7169 25.1011L16.9906 24.3644L17.88 25.023L17.4776 25.6884L16.3519 26.3507C16.2436 26.8028 16.1572 27.2642 16.0937 27.7324L9.00285 24.8252C8.92698 24.8562 8.84737 24.8866 8.76216 24.9163L8.60356 25.7045L7.30803 25.183L7.54126 24.4332L9.26532 23.0478ZM11.6773 17.9249C12.1767 17.1485 12.724 16.4055 13.3155 15.7011L18.1008 21.8088C18.1779 21.8138 18.2575 21.8206 18.3396 21.828L18.7955 21.1874L19.4834 22.0525L18.9218 22.5914L17.6629 22.9406C17.4397 23.3505 17.2356 23.7734 17.0534 24.2069L11.1405 19.7072C11.0093 19.6799 10.8644 19.6427 10.7045 19.5968L10.3463 20.3168L9.23111 19.4783L9.65093 18.8142L11.6748 17.9218L11.6773 17.9249ZM15.3374 13.5963C16.0179 12.9762 16.7381 12.3988 17.4944 11.868L20.5109 18.9525C20.5892 18.9921 20.6719 19.0356 20.7584 19.0833L21.3648 18.5822L21.8051 19.5955L21.1229 19.9707L19.8199 19.9831C19.4958 20.3236 19.1892 20.6802 18.9006 21.0516L14.2347 15.0208C14.1483 15.0022 14.0575 14.9811 13.9623 14.9569L13.4299 15.5597L12.5698 14.462L13.1482 13.9287L15.3343 13.5889L15.3374 13.5963ZM19.9928 10.3536C20.8081 9.93068 21.6534 9.5586 22.5254 9.24047L23.6156 16.9786C23.6766 17.0034 23.7394 17.0294 23.8053 17.0579L24.5212 16.7311L24.6835 17.8232L23.9266 18.0098L22.6622 17.6849C22.261 17.9311 21.8729 18.1971 21.4998 18.4805L18.5293 11.3812C18.459 11.3626 18.3869 11.3415 18.3123 11.3186L17.6412 11.7638L17.0951 10.482L17.7923 10.1161L19.9921 10.3518L19.9928 10.3536ZM25.3123 8.43181C26.2111 8.23523 27.1309 8.09445 28.0676 8.01198L27.1297 15.626C27.177 15.7048 27.2255 15.7922 27.2752 15.8871L28.052 15.7556L27.9252 16.8527L27.1459 16.8378L26.0071 16.1966C25.5543 16.3305 25.1114 16.4862 24.6792 16.6629L23.6393 8.94218C23.5628 8.92048 23.5006 8.91304 23.4589 8.92544L22.6952 9.18218L22.5005 7.80299L23.2686 7.62935L25.3322 8.42499L25.3123 8.43181Z" fill="url(#paint0_radial)"/>
</g>
<defs>
<filter id="filter0_d" x="6.93237" y="6.61108" width="46.1353" height="48" filterUnits="userSpaceOnUse" color-interpolation-filters="sRGB">
<feFlood flood-opacity="0" result="BackgroundImageFix"/>
<feColorMatrix in="SourceAlpha" type="matrix" values="0 0 0 0 0 0 0 0 0 0 0 0 0 0 0 0 0 0 127 0"/>
<feOffset dy="2"/>
<feColorMatrix type="matrix" values="0 0 0 0 0 0 0 0 0 0 0 0 0 0 0 0 0 0 0.5 0"/>
<feBlend mode="normal" in2="BackgroundImageFix" result="effect1_dropShadow"/>
<feBlend mode="normal" in="SourceGraphic" in2="effect1_dropShadow" result="shape"/>
</filter>
<radialGradient id="paint0_radial" cx="0" cy="0" r="1" gradientUnits="userSpaceOnUse" gradientTransform="translate(36.24 16.2777) scale(53.8835 53.7262)">
<stop stop-color="#C96428"/>
<stop offset="0.0798" stop-color="#C96428"/>
<stop offset="0.3152" stop-color="#F08621"/>
<stop offset="0.4838" stop-color="#C96428"/>
<stop offset="0.7152" stop-color="#C96428"/>
<stop offset="0.7897" stop-color="#F08621"/>
<stop offset="1" stop-color="#C96428"/>
</radialGradient>
</defs>
</svg>
